<svg xmlns="http://www.w3.org/2000/svg" viewBox="0 0 110 110" aria-hidden="true"><path d="M55 82 L55 14" stroke="#2a2a2a" stroke-width="3"></path><path d="M58 18 C78 34 82 60 80 76 L58 76 Z" fill="#e8d9be" stroke="#2a2a2a" stroke-width="3" stroke-linejoin="round"></path><path d="M52 22 C40 38 36 60 38 76 L52 76 Z" fill="#cf8fb0" stroke="#2a2a2a" stroke-width="3" stroke-linejoin="round"></path><path d="M55 14 L67 10 L55 5 Z" fill="#d2695a" stroke="#2a2a2a" stroke-width="2"></path><path d="M14 82 L96 82 L84 98 C82 102 78 104 72 104 L38 104 C32 104 28 102 26 98 Z" fill="#a86a3a" stroke="#2a2a2a" stroke-width="3" stroke-linejoin="round"></path><path d="M8 104 q8 -6 16 0 t16 0 t16 0 t16 0 t16 0 t16 0" fill="none" stroke="#5b93a8" stroke-width="3" stroke-linecap="round"></path></svg>
