<svg xmlns="http://www.w3.org/2000/svg" viewBox="0 0 130 90" aria-hidden="true"><circle cx="99" cy="24" r="13" fill="#f2c14e" stroke="#2a2a2a" stroke-width="3"></circle><g stroke="#e8a23d" stroke-width="2.6" stroke-linecap="round"><path d="M99 4 V-2 M99 44 V50 M119 24 H125 M79 24 H73 M113 10 L117 6 M85 38 L81 42 M113 38 L117 42 M85 10 L81 6"></path></g><g fill="none" stroke="#5b93a8" stroke-width="3" stroke-linecap="round"><path d="M6 60 q10 -7 20 0 t20 0 t20 0 t20 0 t20 0"></path><path d="M6 70 q10 -7 20 0 t20 0 t20 0 t20 0 t20 0"></path><path d="M18 80 q10 -7 20 0 t20 0 t20 0 t20 0"></path></g></svg>
