<svg xmlns="http://www.w3.org/2000/svg" viewBox="0 0 100 120" aria-hidden="true"><path d="M47 42 C43 66 41 92 39 116" fill="none" stroke="#a86a3a" stroke-width="7" stroke-linecap="round"></path><path d="M43 56 h7 M42 72 h8 M41 88 h8 M40 104 h8" stroke="#7a4a2b" stroke-width="2" fill="none"></path><g fill="#6f9463" stroke="#3f5e3a" stroke-width="2" stroke-linejoin="round"><path d="M47 40 C28 30 14 30 4 38 C18 40 34 42 47 46 Z"></path><path d="M47 40 C34 22 22 14 10 12 C22 24 36 34 47 44 Z"></path><path d="M47 40 C52 20 62 10 76 8 C64 22 54 32 49 44 Z"></path><path d="M47 40 C66 30 82 30 94 38 C80 40 62 42 49 46 Z"></path><path d="M47 40 C48 22 52 12 60 6 C54 22 50 34 49 44 Z"></path></g><circle cx="43" cy="47" r="4" fill="#8a5a2e"></circle><circle cx="52" cy="48" r="4" fill="#8a5a2e"></circle></svg>
